{"title":"A Charlie Brown Christmas (1965) BRRip x264 + Ukr sub","uid":9268577,"size":216663173,"categoryP":"video","categoryS":"movies","magnet":"?xt=urn:btih:5b7c94f406c2f985ef2a8e9db45ba9cffcaf6a79&amp;dn=A+Charlie+Brown+Christmas+%281965%29+BRRip+x264+%2B+Ukr+sub&amp;tr=udp%3A%2F%2Ftracker.openbittorrent.com%3A80&amp;tr=udp%3A%2F%2Fopen.demonii.com%3A1337&amp;tr=udp%3A%2F%2Ftracker.coppersurfer.tk%3A6969&amp;tr=udp%3A%2F%2Fexodus.desync.com%3A6969","seeders":1,"leechers":0,"uploader":"orysia","files":-1,"time":1385736411,"description":" &lt;a href=&quot;http://www.imdb.com/title/tt0059026/?ref_=nv_sr_1&quot; rel=&quot;nofollow&quot; target=&quot;_NEW&quot;&gt;http://www.imdb.com/title/tt0059026/?ref_=nv_sr_1&lt;/a&gt;\n\nAnimation | Short | Comedy\n\n\nDirector: Bill Melendez\nWriter: Charles M. Schulz\nStars: Ann Altieri, Chris Doran, Sally Dryer\n\nRepelled by the commercialism he sees around him, Charlie Brown tries to find the true meaning of Christmas.\n\nFormat                         : MPEG-4\nFormat profile                 : Base Media\nCodec ID                       : isom\nFile size                      : 207 MiB\nDuration                       : 25mn 28s\nOverall bit rate               : 1 134 Kbps\nMovie name                     : A Charlie Brown Christmas*1965 /antusyrzhuk\nGenre                          : Comedy\nRecorded date                  : 1965\nWriting application            : Lavf54.63.104\nComment                        : http://cinemasterpiece(dot)wordpress(dot)com/\n\nVideo\nID                             : 1\nFormat                         : AVC\nFormat/Info                    : Advanced Video Codec\nFormat profile                 : &lt;a class=&quot;__cf_email__&quot; href=&quot;/cdn-cgi/l/email-protection&quot; data-cfemail=&quot;f2ba9b959ab2bec1dcc0&quot;&gt;[email&amp;#160;protected]&lt;/a&gt;&lt;script cf-hash='f9e31' type=&quot;text/javascript&quot;&gt;\n/* &lt;![CDATA[ */!function(){try{var t=&quot;currentScript&quot;in document?document.currentScript:function(){for(var t=document.getElementsByTagName(&quot;script&quot;),e=t.length;e--;)if(t[e].getAttribute(&quot;cf-hash&quot;))return t[e]}();if(t&amp;&amp;t.previousSibling){var e,r,n,i,c=t.previousSibling,a=c.getAttribute(&quot;data-cfemail&quot;);if(a){for(e=&quot;&quot;,r=parseInt(a.substr(0,2),16),n=2;a.length-n;n+=2)i=parseInt(a.substr(n,2),16)^r,e+=String.fromCharCode(i);e=document.createTextNode(e),c.parentNode.replaceChild(e,c)}}}catch(u){}}();/* ]]&gt; */&lt;/script&gt;\nFormat settings, CABAC         : Yes\nFormat settings, ReFrames      : 12 frames\nCodec ID                       : avc1\nCodec ID/Info                  : Advanced Video Coding\nDuration                       : 25mn 28s\nBit rate                       : 1 000 Kbps\nWidth                          : 660 pixels\nHeight                         : 478 pixels\nDisplay aspect ratio           : 1.381\nFrame rate mode                : Constant\nFrame rate                     : 23.976 fps\nColor space                    : YUV\nChroma subsampling             : 4:2:0\nBit depth                      : 8 bits\nScan type                      : Progressive\nBits/(Pixel*Frame)             : 0.132\nStream size                    : 182 MiB (88%)\nWriting library                : x264 core 123 r2189 35cf912\nEncoding settings              : cabac=1 / ref=12 / deblock=1:1:1 / analyse=0x3:0x133 / me=hex / subme=7 / psy=1 / psy_rd=1.00:0.00 / mixed_ref=1 / me_range=16 / chroma_me=1 / trellis=1 / 8x8dct=1 / cqm=0 / deadzone=21,11 / fast_pskip=1 / chroma_qp_offset=-2 / threads=3 / sliced_threads=0 / nr=0 / decimate=1 / interlaced=0 / bluray_compat=0 / constrained_intra=0 / bframes=3 / b_pyramid=2 / b_adapt=1 / b_bias=0 / direct=1 / weightb=0 / open_gop=0 / weightp=2 / keyint=250 / keyint_min=25 / scenecut=40 / intra_refresh=0 / rc_lookahead=50 / rc=2pass / mbtree=1 / bitrate=1000 / ratetol=1.0 / qcomp=0.60 / qpmin=10 / qpmax=51 / qpstep=4 / cplxblur=20.0 / qblur=0.5 / ip_ratio=1.40 / aq=1:1.00\n\nAudio\nID                             : 2\nFormat                         : AAC\nFormat/Info                    : Advanced Audio Codec\nFormat profile                 : LC\nCodec ID                       : 40\nDuration                       : 25mn 28s\nBit rate mode                  : Constant\nBit rate                       : 128 Kbps\nChannel(s)                     : 2 channels\nChannel positions              : Front: L R\nSampling rate                  : 48.0 KHz\nCompression mode               : Lossy\nStream size                    : 23.3 MiB (11%)\nLanguage                       : English\n\nUkrainian subtitles are HARDCODED\n\nScreenshots: &lt;a href=&quot;\nhttp://img10.imageshack.us/img10/6297/6h0o.png&quot; rel=&quot;nofollow&quot; target=&quot;_NEW&quot;&gt;\nhttp://img10.imageshack.us/img10/6297/6h0o.png&lt;/a&gt; &lt;a href=&quot;\nhttp://imageshack.us/a/img43/200/fqw0.png&quot; rel=&quot;nofollow&quot; target=&quot;_NEW&quot;&gt;\nhttp://imageshack.us/a/img43/200/fqw0.png&lt;/a&gt; &lt;a href=&quot;\nhttp://imageshack.us/a/img14/7529/laz5.png&quot; rel=&quot;nofollow&quot; target=&quot;_NEW&quot;&gt;\nhttp://imageshack.us/a/img14/7529/laz5.png&lt;/a&gt; &lt;a href=&quot;\nhttp://imageshack.us/a/img826/8718/edup.png&quot; rel=&quot;nofollow&quot; target=&quot;_NEW&quot;&gt;\nhttp://imageshack.us/a/img826/8718/edup.png&lt;/a&gt; &lt;a href=&quot;\nhttp://imageshack.us/a/img198/9436/mt99.png&quot; rel=&quot;nofollow&quot; target=&quot;_NEW&quot;&gt;\nhttp://imageshack.us/a/img198/9436/mt99.png&lt;/a&gt;\n","torrent":{"xt":"urn:btih:5b7c94f406c2f985ef2a8e9db45ba9cffcaf6a79","amp;dn":"A+Charlie+Brown+Christmas+%281965%29+BRRip+x264+%2B+Ukr+sub","amp;tr":["udp%3A%2F%2Ftracker.openbittorrent.com%3A80","udp%3A%2F%2Fopen.demonii.com%3A1337","udp%3A%2F%2Ftracker.coppersurfer.tk%3A6969","udp%3A%2F%2Fexodus.desync.com%3A6969"],"infoHash":"5b7c94f406c2f985ef2a8e9db45ba9cffcaf6a79","infoHashBuffer":{"type":"Buffer","data":[91,124,148,244,6,194,249,133,239,42,142,157,180,91,169,207,252,175,106,121]},"announce":[],"urlList":[]}}